<?xml version="1.0" encoding="UTF-8"?>
<svg id="Layer_1" data-name="Layer 1" xmlns="http://www.w3.org/2000/svg" xmlns:xlink="http://www.w3.org/1999/xlink" viewBox="0 0 2129.13 1417.45">
  <defs>
    <style>
      .cls-1 {
        stroke: #fff;
        stroke-miterlimit: 10;
        stroke-width: 10px;
      }

      .cls-1, .cls-2 {
        fill: none;
      }

      .cls-3 {
        font-size: 65px;
      }

      .cls-3, .cls-4, .cls-5 {
        fill: #fff;
        font-family: KohinoorBangla-Bold, 'Kohinoor Bangla';
        font-weight: 700;
      }

      .cls-6 {
        clip-path: url(#clippath);
      }

      .cls-7 {
        letter-spacing: -.02em;
      }

      .cls-8 {
        letter-spacing: -.02em;
      }

      .cls-2, .cls-9 {
        stroke-width: 0px;
      }

      .cls-4 {
        font-size: 40px;
      }

      .cls-10 {
        letter-spacing: -.03em;
      }

      .cls-11 {
        letter-spacing: -.02em;
      }

      .cls-12 {
        letter-spacing: -.02em;
      }

      .cls-9 {
        fill: #000;
      }

      .cls-13 {
        letter-spacing: -.03em;
      }

      .cls-5 {
        font-size: 80px;
      }

      .cls-14 {
        letter-spacing: -.01em;
      }

      .cls-15 {
        letter-spacing: 0em;
      }

      .cls-16 {
        letter-spacing: 0em;
      }
    </style>
    <clipPath id="clippath">
      <rect class="cls-2" x="57.63" y="336.95" width="1920" height="1080"/>
    </clipPath>
  </defs>
  <text/>
  <text/>
  <rect class="cls-9" x="58.13" y="337.45" width="1920" height="1080"/>
  <g class="cls-6">
    <image width="1921" height="1079" transform="translate(57.63 336.95)" xlink:href="../../../Sports Icons/gazpromStad.png"/>
  </g>
  <line class="cls-1" x1="698.13" y1="777.45" x2="698.13" y2="1417.45"/>
  <line class="cls-1" x1="1338.13" y1="777.45" x2="1338.13" y2="1417.45"/>
  <g>
    <text class="cls-3" transform="translate(99.13 781.72) scale(.91 1)"><tspan x="0" y="0">SPONSORSHIP</tspan></text>
    <text class="cls-3" transform="translate(737.13 781.72) scale(.91 1)"><tspan class="cls-8" x="0" y="0">A</tspan><tspan class="cls-15" x="41.99" y="0">C</tspan><tspan x="79.75" y="0">QUISITION</tspan></text>
    <text class="cls-3" transform="translate(1379.13 781.72) scale(.91 1)"><tspan x="0" y="0">HO</tspan><tspan class="cls-13" x="90.74" y="0">S</tspan><tspan x="126.29" y="0">TING</tspan></text>
  </g>
  <text class="cls-5" transform="translate(102.7 485.21) scale(.91 1)"><tspan x="0" y="0">METHOD</tspan></text>
  <text class="cls-4" transform="translate(109.13 1000.28) scale(.91 1)"><tspan class="cls-10" x="0" y="0">B</tspan><tspan x="24.48" y="0">y </tspan><tspan class="cls-16" x="57.48" y="0">c</tspan><tspan x="77.24" y="0">ollabo</tspan><tspan class="cls-12" x="195.28" y="0">r</tspan><tspan x="211.32" y="0">ating with </tspan><tspan class="cls-7" x="417.04" y="0">f</tspan><tspan x="431.88" y="0">ootball </tspan><tspan x="0" y="48">associations and teams, </tspan><tspan x="0" y="96">entities get to promote their </tspan><tspan x="0" y="144">b</tspan><tspan class="cls-11" x="23.68" y="144">r</tspan><tspan x="39.72" y="144">and through ads on jerseys, </tspan><tspan x="0" y="192">banners, posters and even </tspan><tspan x="0" y="240">stadiums.</tspan></text>
  <text class="cls-4" transform="translate(739.34 998.59) scale(.91 1)"><tspan class="cls-16" x="0" y="0">Ac</tspan><tspan x="46" y="0">quiring </tspan><tspan class="cls-7" x="193.84" y="0">f</tspan><tspan x="208.68" y="0">ootball teams </tspan><tspan x="0" y="48">albeit a </tspan><tspan class="cls-16" x="153.12" y="48">c</tspan><tspan x="172.88" y="48" xml:space="preserve">omplicated  process </tspan><tspan x="0" y="96">pr</tspan><tspan class="cls-7" x="40.64" y="96">o</tspan><tspan x="63.52" y="96">vides inside access into the </tspan><tspan x="0" y="144">mechanism </tspan><tspan class="cls-14" x="230.28" y="144">o</tspan><tspan x="253.52" y="144">f the </tspan><tspan class="cls-7" x="354.92" y="144">f</tspan><tspan x="369.76" y="144">ootball </tspan><tspan class="cls-16" x="0" y="192">c</tspan><tspan x="19.76" y="192">ommunity</tspan></text>
  <text class="cls-4" transform="translate(1383.61 998.86) scale(.91 1)"><tspan x="0" y="0">Being selected as the host </tspan><tspan x="0" y="48">location </tspan><tspan class="cls-14" x="165.48" y="48">o</tspan><tspan x="188.72" y="48">f a </tspan><tspan class="cls-7" x="248.64" y="48">f</tspan><tspan x="263.48" y="48">ootball event </tspan><tspan x="0" y="96">pr</tspan><tspan class="cls-7" x="40.64" y="96">o</tspan><tspan x="63.52" y="96">vides immense benefits to </tspan><tspan x="0" y="144">the host.</tspan></text>
</svg>